<?xml version="1.0" encoding="UTF-8"?>
<svg xmlns="http://www.w3.org/2000/svg" viewBox="0 0 839 865">
  <defs><style>.c{fill:#fff}</style></defs>
  <g>
    <path class="c" d="M419.67,610.64c32.39,60.82,50.8,130.02,50.8,203.66,0,6.29-.12,12.58-.41,18.85-.47,10.09,7.17,18.67,17.27,18.67h334.07c9.65,0,17.48-7.82,17.48-17.48v-334.2c0-10.06-8.5-17.77-18.55-17.34-6.2.26-12.44.38-18.73.38-73.64,0-142.84-18.41-203.66-50.8-75.73,40.31-137.95,102.53-178.26,178.26Z"/>
    <path class="c" d="M241.18,432.38c-60.82,32.39-130.26,50.8-203.89,50.8-6.29,0-12.53-.12-18.73-.38-10.05-.43-18.55,7.28-18.55,17.34v334.2c0,9.65,7.82,17.48,17.48,17.48h334.3c10.1,0,17.74-8.58,17.27-18.67-.29-6.26-.41-12.55-.41-18.85,0-73.64,18.41-142.84,51.03-203.66-40.55-75.73-102.76-137.95-178.49-178.26Z"/>
    <path class="c" d="M820.32,381.73c10.05.43,18.55-7.28,18.55-17.34V30.42c0-9.65-7.82-17.48-17.48-17.48h-333.96c-10.06,0-17.77,8.5-17.34,18.55.26,6.2.38,12.44.38,18.73,0,73.64-18.41,143.07-50.8,203.89,40.31,75.5,102.53,137.72,178.26,178.26,60.82-32.62,130.02-51.03,203.66-51.03,6.29,0,12.52.12,18.73.38Z"/>
    <path class="c" d="M419.67,254.12c-32.62-60.82-51.03-130.26-51.03-203.89,0-6.29.12-12.52.38-18.73.43-10.05-7.28-18.55-17.34-18.55H17.48C7.82,12.95,0,20.77,0,30.42v333.96c0,10.06,8.5,17.77,18.55,17.34,6.2-.26,12.44-.38,18.73-.38,73.63,0,143.07,18.41,203.89,51.03,75.73-40.55,137.95-102.76,178.49-178.26Z"/>
  </g>
</svg>
