<?xml version="1.0" encoding="UTF-8"?>
<svg xmlns="http://www.w3.org/2000/svg" viewBox="0 0 3922.74 864.77">
  <defs><style>.c{fill:#fff}</style></defs>
  <g>
    <path class="c" d="M3697.59,619.93c-18.67,24.27-42.01,43.12-70.01,56.57-28,13.44-58.81,20.16-92.41,20.16s-65.91-6.34-94.65-19.05c-28.76-12.69-53.4-30.8-73.93-54.33-20.55-23.52-36.6-51.53-48.17-84.01-11.59-32.49-17.36-67.3-17.36-106.89s5.77-74.41,17.36-106.89c11.57-32.48,27.62-60.49,48.17-84.01,20.53-23.52,45.17-41.64,73.93-54.33,28.74-12.71,60.3-19.04,94.65-19.04s64.41,6.72,92.41,20.16c28,13.44,51.34,32.29,70.01,56.57,18.66,24.26,30.61,52.09,35.85,83.45h189.31c-9.71-65.72-32.49-123.04-68.33-171.95-35.84-48.92-81.4-87.2-136.66-114.82C3662.48,13.89,3601.63.08,3535.17.08c-61.24,0-117.44,10.64-168.58,31.92-51.16,21.28-95.6,51.34-133.3,90.17-37.72,38.82-66.84,84.74-87.37,137.78-2.2,5.67-4.22,11.41-6.19,17.17V13.44h-269.96l-219.55,638.49L2431.78,13.44h-272.2v148.53c-5.13-8.6-10.63-17.08-16.8-25.31-31.36-41.81-71.88-75.05-121.54-99.7C1971.58,12.32,1915.76,0,1853.78,0s-117.25,10.47-165.78,31.36c-48.55,20.92-86.45,49.85-113.7,86.81-27.27,36.96-40.89,79.36-40.89,127.14s8.21,89.24,24.64,119.86c16.42,30.63,38.64,54.52,66.65,71.69,28,17.19,58.42,30.25,91.3,39.21,32.85,8.96,65.9,16.07,99.13,21.28,33.22,5.23,63.66,11.59,91.29,19.04,27.62,7.47,49.85,18.12,66.65,31.93,16.8,13.83,25.2,33.8,25.2,59.93,0,17.92-5.23,33.43-15.68,46.49-10.47,13.07-25.2,23.52-44.25,31.36-19.05,7.84-41.27,11.76-66.65,11.76-32.12,0-61.05-6.53-86.81-19.6-25.77-13.06-46.87-31.17-63.29-54.33-16.43-23.14-26.15-50.02-29.12-80.65h-188.19c1.49,48.55,11.38,92.61,29.68,132.18,2.11,4.56,4.33,9.03,6.61,13.44h-345.45V13.44h-183.71v837.88h565.68v-107.1c9.76,11.79,20.37,22.86,31.91,33.17,31.73,28.39,69.07,50.04,112.02,64.97,42.93,14.93,89.79,22.41,140.58,22.41,67.21,0,124.9-11.2,173.06-33.61,48.17-22.4,85.31-54.33,111.46-95.77,5.01-7.95,9.39-16.23,13.44-24.68v140.62h183.71V226.27l41.44,140.02,169.14,485.03h189.31l172.51-490.63,40.32-135.54v626.17h183.71v-263.69c1.96,5.76,3.99,11.5,6.19,17.17,20.53,53.03,49.65,98.96,87.37,137.78,37.7,38.84,82.14,68.89,133.3,90.17,51.14,21.28,107.34,31.92,168.58,31.92,66.46,0,127.31-13.81,182.59-41.45,55.26-27.62,100.82-65.89,136.66-114.82,35.85-48.9,58.62-106.22,68.33-171.95h-189.31c-5.23,31.36-17.19,59.19-35.85,83.45ZM2093.5,392.62c-27.64-18.29-57.88-32.1-90.73-41.44-32.87-9.33-65.91-16.8-99.14-22.41-33.24-5.6-63.85-11.38-91.85-17.36-28-5.97-50.41-14.74-67.21-26.32-16.8-11.57-25.2-28.18-25.2-49.85s10.64-40.32,31.92-53.77c21.28-13.44,49.09-20.16,83.45-20.16,30.61,0,57.86,5.04,81.77,15.12,23.89,10.08,43.12,23.91,57.69,41.44,14.56,17.56,23.7,37.16,27.44,58.81h157.94v189.99c-16.74-31.25-38.76-55.94-66.09-74.06Z"/>
    <path class="c" d="M419.67,610.64c32.39,60.82,50.8,130.02,50.8,203.66,0,6.29-.12,12.58-.41,18.85-.47,10.09,7.17,18.67,17.27,18.67h334.07c9.65,0,17.48-7.82,17.48-17.48v-334.2c0-10.06-8.5-17.77-18.55-17.34-6.2.26-12.44.38-18.73.38-73.64,0-142.84-18.41-203.66-50.8-75.73,40.31-137.95,102.53-178.26,178.26Z"/>
    <path class="c" d="M241.18,432.38c-60.82,32.39-130.26,50.8-203.89,50.8-6.29,0-12.53-.12-18.73-.38-10.05-.43-18.55,7.28-18.55,17.34v334.2c0,9.65,7.82,17.48,17.48,17.48h334.3c10.1,0,17.74-8.58,17.27-18.67-.29-6.26-.41-12.55-.41-18.85,0-73.64,18.41-142.84,51.03-203.66-40.55-75.73-102.76-137.95-178.49-178.26Z"/>
    <path class="c" d="M820.32,381.73c10.05.43,18.55-7.28,18.55-17.34V30.42c0-9.65-7.82-17.48-17.48-17.48h-333.96c-10.06,0-17.77,8.5-17.34,18.55.26,6.2.38,12.44.38,18.73,0,73.64-18.41,143.07-50.8,203.89,40.31,75.5,102.53,137.72,178.26,178.26,60.82-32.62,130.02-51.03,203.66-51.03,6.29,0,12.52.12,18.73.38Z"/>
    <path class="c" d="M419.67,254.12c-32.62-60.82-51.03-130.26-51.03-203.89,0-6.29.12-12.52.38-18.73.43-10.05-7.28-18.55-17.34-18.55H17.48C7.82,12.95,0,20.77,0,30.42v333.96c0,10.06,8.5,17.77,18.55,17.34,6.2-.26,12.44-.38,18.73-.38,73.63,0,143.07,18.41,203.89,51.03,75.73-40.55,137.95-102.76,178.49-178.26Z"/>
  </g>
</svg>
